<svg width="973" height="163" viewBox="0 0 973 163" fill="none" xmlns="http://www.w3.org/2000/svg">
<g clip-path="url(#clip0_1722_1302)">
<path d="M472.447 33.046C496.35 33.046 515.795 54.5089 515.795 80.8911C515.795 103.608 501.222 121.519 479.419 125.481C470.967 127.594 463.208 127.359 458.573 127.217C456.293 127.148 455.254 127.125 454.578 127.288C449.731 128.236 449.003 131.684 448.654 133.341L448.577 133.728C447.999 138.133 447.298 143.185 446.31 147.386L446.282 147.543C445.001 156.428 438.694 162.877 431.285 162.877C423.665 162.877 418.182 158.612 417.951 152.508L417.94 152.365C417.908 152.093 417.886 151.819 417.886 151.541V41.9807C417.886 38.1861 420.952 35.0981 424.723 35.0981H430.43L430.586 35.0906C430.859 35.0681 431.427 35.0394 432.224 35.133C433.348 35.2254 434.436 35.5961 435.428 36.2427C436.486 36.8768 437.435 37.7655 438.243 38.8814C441.573 43.4645 446.98 41.0045 451.864 38.5868L452.425 38.3085C453.9 37.5745 455.425 36.8156 456.905 36.2289C461.877 34.117 467.106 33.046 472.447 33.046ZM579.706 5.47583C597.086 5.47583 611.855 11.1876 622.418 21.9909C632.997 32.8116 638.589 47.9549 638.589 65.7818C638.589 74.4705 637.213 82.6076 634.494 89.997C633.921 91.6384 632.992 94.0362 631.799 96.2019C631.572 96.65 631.339 97.0906 631.101 97.5312L631.012 97.7209C630.304 99.4959 630.101 102.339 633.224 105.899L634.974 107.653C635.111 107.78 635.234 107.89 635.337 107.987L637.75 110.446L637.856 110.545C640.997 113.229 642.727 116.776 642.727 120.533C642.727 128.367 635.184 134.74 625.915 134.74C623.572 134.74 621.297 134.335 619.055 133.502C616.534 132.726 613.95 131.184 611.211 129.555C606.929 127.005 602.165 124.165 596.946 124.165C596.01 124.165 595.058 124.258 594.092 124.459C591.029 125.097 587.556 125.49 583.737 125.63C582.317 125.707 580.998 125.744 579.706 125.744C544.488 125.744 520.825 101.648 520.825 65.7818C520.825 47.9549 526.416 32.8116 536.994 21.9909C547.558 11.1876 562.327 5.47583 579.706 5.47583ZM351.105 33.0455C355.425 33.0455 359.72 33.7645 363.875 35.1824L364.204 35.2611C365.467 35.5457 367.041 36.3146 368.468 37.0597L369.309 37.4592C369.873 37.7438 370.776 38.2206 371.895 38.8884C375.198 40.6121 381.344 43.8225 384.931 38.8796C387.678 35.0926 391.197 34.9665 392.586 35.0913L398.829 35.0988C402.6 35.0988 405.666 38.1856 405.666 41.9802V118.981C405.666 122.775 402.6 125.862 398.829 125.862H389.407C387.584 125.862 385.864 125.138 384.528 123.787C383.454 122.76 383.036 121.595 382.667 120.565C382.278 119.48 381.837 118.252 380.5 117.886C379.243 117.542 378.152 118.268 377.252 119.022C376.82 119.383 376.383 119.736 375.932 120.084L375.758 120.219C368.482 125.791 359.957 128.736 351.105 128.736C327.203 128.736 307.757 107.273 307.757 80.8906C307.757 54.5084 327.203 33.0455 351.105 33.0455ZM875.357 30.6873C885.305 30.1805 897.573 32.9066 906.607 37.6348L906.721 37.6897C907.121 37.8645 907.534 38.0891 907.951 38.3588L908.137 38.4649C911.714 40.2223 913.936 43.57 913.936 47.1998C913.936 51.2253 911.238 54.8339 907.058 56.3941L906.914 56.4553C906.125 56.831 905.16 57.0494 903.962 57.1093C903.56 57.148 903.151 57.1693 902.738 57.1693C901.183 57.1693 899.077 56.7449 896.804 55.9735L896.623 55.921C896.354 55.8611 895.94 55.7326 895.421 55.574C892.296 54.6229 885.795 52.6445 881.587 55.0685C879.844 56.0746 878.698 57.671 878.183 59.8192C877.842 61.2372 878.035 62.599 878.744 63.7561C878.84 63.9108 878.963 64.0282 879.07 64.1692C879.817 64.9793 881.127 65.8842 883.458 66.597C886.96 67.6679 894.47 69.8511 900.772 74.4345C903.841 76.5664 906.248 79.0566 908.066 82.0036L908.11 82.071C909.475 84.0781 913.751 91.4538 911.477 102.142C909.012 116.242 895.596 125.607 876.464 126.581C866.502 127.081 854.248 124.36 845.215 119.633L845.099 119.578C844.701 119.405 844.286 119.179 843.869 118.908L843.683 118.803C840.105 117.045 837.882 113.698 837.882 110.068C837.882 106.044 840.583 102.434 844.761 100.873L844.905 100.813C845.694 100.437 846.66 100.219 847.859 100.16C848.26 100.121 848.67 100.099 849.084 100.099C850.636 100.099 852.744 100.523 855.016 101.295L855.197 101.346C855.468 101.408 855.881 101.536 856.399 101.693C859.525 102.645 866.029 104.622 870.235 102.2C871.978 101.194 873.122 99.5971 873.638 97.4489C873.979 96.0297 873.785 94.6679 873.077 93.5121C872.857 93.1526 872.599 92.8331 872.321 92.5497C871.436 91.7022 869.57 90.8884 867.269 90.0296C863.39 88.7851 859.039 87.3647 854.889 85.1666L854.769 85.1004C854.363 84.8857 853.963 84.661 853.554 84.4239C851.171 83.0671 849.071 81.4881 847.293 79.7169L846.124 78.3713C843.766 75.6577 842.102 72.5547 841.074 68.9361H841.117L840.663 66.748C840.286 64.9369 840.061 63.1931 839.971 61.4182C839.105 44.1592 853.326 31.8094 875.357 30.6873ZM715.965 29.9562C724.427 29.9562 730.335 35.5232 730.335 43.493C730.335 43.9071 731.538 79.3993 731.574 88.4947L731.574 89.2611C731.478 106.796 724.716 117.682 712.284 122.532L711.161 123.048C708.32 124.011 700.42 126.348 690.268 126.455L690.229 126.453L690.18 126.455C680.566 126.358 672.973 124.266 669.762 123.22L669.778 123.18L668.116 122.532C655.678 117.679 648.827 105.855 648.825 89.2873C649.032 81.7144 650.064 43.9199 650.064 43.493C650.064 35.5232 655.974 29.9562 664.435 29.9562C671.241 29.9562 676.592 33.9904 678.4 40.4823L678.454 40.6434C678.754 41.4297 678.905 42.2398 678.907 43.1373L680.325 74.4211C680.325 75.0427 680.372 75.6843 680.467 76.3845C680.695 81.7706 684.946 85.9745 690.185 85.9745C695.266 85.9745 699.51 81.9029 699.885 76.6854C700.014 75.864 700.074 75.1451 700.072 74.5047L701.494 43.0549C701.494 42.2398 701.647 41.4297 701.947 40.6434L702 40.4823C703.808 33.9904 709.158 29.9562 715.965 29.9562ZM188.261 11.0659L188.613 11.0759C202.624 11.534 206.963 20.435 207.958 23.1523L225.712 57.3682C226.345 58.7525 228.304 61.0916 231.631 61.0916C234.955 61.0916 236.916 58.7525 237.511 57.4494L255.859 22.1076C257.666 18.1595 262.524 11.4766 274.745 11.0772C274.813 11.0759 274.882 11.0722 274.927 11.0659H275.161C275.645 11.0559 276.14 11.0559 276.677 11.0659H288.153C293.553 11.0659 297.945 15.4896 297.945 20.9243V116.232C297.945 121.667 293.553 126.091 288.153 126.091H274.927C269.528 126.091 265.134 121.667 265.134 116.232V106.716L265.13 106.58C264.939 104.035 263.651 102.067 261.594 101.179C261.179 100.999 260.762 100.917 260.348 100.917C256.917 100.917 253.601 106.596 251.825 110.254C251.749 110.408 244.084 125.753 232.361 125.857H232.258C220.57 125.753 212.872 110.407 212.8 110.259C208.152 100.696 204.681 100.468 203.026 101.179C200.969 102.067 199.679 104.035 199.491 106.58L199.486 116.232C199.486 121.667 195.091 126.091 189.693 126.091H176.468C171.068 126.091 166.673 121.667 166.673 116.232V20.9243C166.673 15.4896 171.068 11.0659 176.468 11.0659H186.744C187.246 11.0559 187.74 11.0559 188.261 11.0659ZM787.545 30.0821C789.367 30.0821 791.246 30.1882 793.536 30.4204C797.222 30.6288 800.878 31.4327 804.446 32.8269C811.257 35.2647 816.865 39.2902 821.116 44.7948L821.204 44.8996C822.975 46.868 824.735 49.1161 826.445 51.59L826.796 52.1455C826.853 52.2353 832.448 61.2237 830.345 69.2796C829.35 73.0917 826.737 76.161 822.577 78.399C822.026 78.6936 821.573 78.9944 821.294 79.1891L809.123 86.5086C807.733 87.3374 805.966 89.0937 805.561 91.3105C805.298 92.7522 805.651 94.1389 806.584 95.3197C807.851 96.9237 810.507 97.3606 813.867 97.911C815.338 98.1507 816.857 98.4016 818.346 98.7611L818.43 98.7785C825.287 100.094 830.077 105.682 830.077 112.368C830.077 117.432 827.647 122.02 823.733 124.346L823.592 124.438C822.678 125.103 820.184 125.67 818.51 125.736C817.829 125.768 807.676 125.779 797.744 125.781L788.397 125.782C759.406 125.782 739.927 106.586 739.927 78.0171C739.927 49.347 759.063 30.0821 787.545 30.0821ZM945.731 7.94017C949.781 7.94017 953.077 11.2567 953.077 15.3333L953.078 24.8234C953.304 30.3343 957.114 32.9006 965.429 33.1415L965.481 33.1427C969.937 33.1427 971.518 37.1258 971.518 40.5359V49.6366C971.518 53.0479 969.937 57.0297 965.481 57.0297L959.967 57.0322C955.909 57.1995 953.399 60.6208 953.077 66.5186V118.294C953.077 122.372 949.781 125.687 945.731 125.687H928.346C924.297 125.687 921.001 122.372 921.001 118.294V15.3333C921.001 11.2567 924.297 7.94017 928.346 7.94017H945.731ZM353.926 63.7514C344.763 63.7514 337.309 71.2557 337.309 80.4812C337.309 89.7054 344.763 97.2084 353.926 97.2084C363.089 97.2084 370.544 89.7054 370.544 80.4812C370.544 71.2557 363.089 63.7514 353.926 63.7514ZM469.627 63.7507C460.463 63.7507 453.008 71.2562 453.008 80.4817C453.008 89.7047 460.463 97.2089 469.627 97.2089C478.79 97.2089 486.245 89.7047 486.245 80.4817C486.245 71.2562 478.79 63.7507 469.627 63.7507ZM580.756 43.2878C569.124 43.2878 559.661 52.8116 559.661 64.5198C559.661 76.228 569.124 85.7543 580.756 85.7543C592.385 85.7543 601.849 76.228 601.849 64.5198C601.849 52.8116 592.385 43.2878 580.756 43.2878ZM796.333 59.3102C791.946 54.929 785.896 54.1576 780.54 57.2968C773.989 61.1376 771.392 67.9266 773.924 74.5895L774.052 74.8566C774.879 76.2833 776.172 77.0572 777.589 77.0572C778.096 77.0572 778.618 76.9586 779.14 76.7551L795.929 66.9729L796.087 66.8693C797.446 65.8683 797.858 64.6712 797.965 63.8437C798.209 61.9564 797.129 60.285 796.464 59.4562L796.333 59.3102Z" fill="white"/>
</g>
<g clip-path="url(#clip1_1722_1302)">
<path fill-rule="evenodd" clip-rule="evenodd" d="M91.3993 8.8037L132.379 50.6562C143.874 62.3945 143.874 81.6046 132.379 93.3428L91.3993 135.195C79.9043 146.935 61.0946 146.935 49.6009 135.195L8.62029 93.3428C-2.87343 81.6046 -2.87343 62.3945 8.62029 50.6562L49.6009 8.8037C61.0946 -2.93457 79.9043 -2.93457 91.3993 8.8037ZM79.2449 40.7062C75.5729 40.7062 72.5956 43.7715 72.5956 47.5528C72.5956 48.85 75.7012 54.8702 75.7812 54.9973H60.7335C49.363 54.9973 40.1136 64.4448 40.1136 76.0585V97.2805C40.1136 100.6 42.7493 103.294 45.9996 103.294C49.2512 103.294 51.8881 100.6 51.8881 97.2805V76.0585C51.8881 71.076 55.8561 67.0236 60.7335 67.0236H75.6426C75.2616 67.6268 72.706 73.0971 72.706 74.1556C72.706 77.9369 75.6821 81.0022 79.3555 81.0022C80.7425 81.0022 82.0317 80.5624 83.0974 79.8139C83.3413 79.6971 100.264 66.7383 100.264 66.7383C102.22 65.4865 103.411 63.2643 103.411 60.871C103.411 58.479 102.22 56.2582 100.264 55.0065C100.264 55.0065 83.2282 41.9852 82.9246 41.8503C81.8704 41.1291 80.6053 40.7062 79.2449 40.7062Z" fill="white"/>
</g>
<defs>
<clipPath id="clip0_1722_1302">
<rect width="806.699" height="157.631" fill="white" transform="translate(165.684 5.36908)"/>
</clipPath>
<clipPath id="clip1_1722_1302">
<rect width="141" height="144" fill="white"/>
</clipPath>
</defs>
</svg>
