<svg width="600" height="600" viewBox="0 0 600 600" fill="none" xmlns="http://www.w3.org/2000/svg">
<g clip-path="url(#clip0_1719_1260)">
<rect x="79" y="299.99" width="312" height="312" transform="rotate(-45 79 299.99)" fill="white"/>
<path fill-rule="evenodd" clip-rule="evenodd" d="M373.024 80.5684L516.957 225.89C557.332 266.647 557.332 333.349 516.957 374.107L373.024 519.428C332.65 560.191 266.584 560.191 226.214 519.428L82.2773 374.107C41.9076 333.349 41.9076 266.647 82.2773 225.89L226.214 80.5684C266.584 39.8105 332.65 39.8105 373.024 80.5684ZM330.334 191.341C317.437 191.341 306.98 201.984 306.98 215.114C306.98 219.618 317.887 240.522 318.168 240.963H265.316C225.379 240.963 192.892 273.767 192.892 314.092V387.78C192.892 399.306 202.149 408.661 213.566 408.661C224.986 408.661 234.248 399.306 234.248 387.78V314.092C234.248 296.792 248.185 282.721 265.316 282.721H317.682C316.343 284.815 307.367 303.809 307.367 307.485C307.367 320.614 317.82 331.258 330.722 331.258C335.594 331.258 340.122 329.73 343.865 327.132C344.722 326.726 404.159 281.73 404.159 281.73C411.029 277.384 415.214 269.668 415.214 261.358C415.214 253.052 411.029 245.341 404.159 240.995C404.159 240.995 344.325 195.782 343.258 195.314C339.556 192.809 335.112 191.341 330.334 191.341Z" fill="#3FB760"/>
</g>
<defs>
<clipPath id="clip0_1719_1260">
<rect width="495.238" height="500" fill="white" transform="translate(52 50)"/>
</clipPath>
</defs>
</svg>
