<svg width="464" height="464" viewBox="0 0 464 464" fill="none" xmlns="http://www.w3.org/2000/svg">
<g clip-path="url(#clip0_101_1031)">
<path d="M366.026 190.157C366.113 175.671 369.217 161.361 375.14 148.141L385.211 125.081L361.514 118.018C351.169 114.965 343.65 107.126 339.138 94.6853L328.52 65.9753L305.233 85.3431C298.185 91.7944 289.079 95.5401 279.531 95.9157C267.312 95.5477 255.686 90.5652 246.993 81.9708L232 67.1146L217.007 82.0164C208.333 90.6117 196.721 95.5954 184.515 95.9613C174.945 95.5838 165.821 91.8209 158.767 85.3431L135.48 65.9753L125.044 94.7764C120.487 107.217 113.013 115.056 102.714 118.109L78.9712 125.173L89.088 148.232C94.8987 161.448 97.9237 175.72 97.9745 190.157C97.9745 229.531 78.8345 237.324 78.8345 278.657C78.8345 333.981 119.849 373.719 164.964 385.477C187.34 391.127 197.73 391.72 214.409 396.414C216.597 398.738 232 415.508 232 415.508C232 415.508 247.403 398.738 249.591 396.414C266.27 391.857 276.933 391.127 299.081 385.477C344.288 373.719 385.166 333.981 385.166 278.657C385.166 237.324 366.026 229.531 366.026 190.157ZM296.347 374.904C272.422 380.965 255.879 382.56 243.712 386.98C242.117 388.439 232 399.513 232 399.513C232 399.513 221.883 388.439 220.334 386.98C208.166 382.423 191.624 380.965 167.653 374.904C117.251 362.053 89.5893 319.398 89.5893 278.748C89.5893 241.835 108.957 230.488 108.957 190.157C108.418 169.932 103.241 150.1 93.8275 132.191C93.8275 132.191 130.285 129.001 140.31 84.2038C140.31 84.2038 162.276 106.99 184.515 106.99C213.133 106.944 232 82.4266 232 82.4266C232 82.4266 250.867 106.944 279.531 106.944C301.77 106.944 323.69 84.1583 323.69 84.1583C333.579 128.955 370.173 132.145 370.173 132.145C360.831 150.087 355.733 169.934 355.271 190.157C355.271 230.488 374.411 241.835 374.411 278.748C374.411 319.398 346.794 362.053 296.347 374.904Z" fill="#CFD2D3"/>
<path d="M344.516 190.157C344.59 172.629 348.267 155.303 355.316 139.254C355.316 139.254 330.434 134.196 318.859 102.432C307.923 111.974 294.036 117.461 279.531 117.972C261.71 117.47 244.735 110.26 232 97.784C219.279 110.253 202.321 117.463 184.515 117.972C170.086 117.424 156.283 111.938 145.414 102.432C133.839 134.332 108.957 139.254 108.957 139.254C115.913 155.322 119.496 172.648 119.484 190.157C119.484 232.812 100.344 245.162 100.344 278.748C100.344 325.732 136.801 355.627 170.342 364.24C197.001 371.03 214.409 371.805 226.121 377.501C226.121 377.501 230.405 381.421 232 383.243C233.595 381.421 237.879 377.501 237.879 377.501C249.591 371.805 267.044 371.03 293.704 364.24C327.335 355.627 363.656 325.732 363.656 278.748C363.656 245.162 344.516 232.812 344.516 190.157ZM131.743 190.157C131.648 175.131 129.187 160.214 124.451 145.953C135.055 139.961 143.866 131.245 149.971 120.706C160.452 126.821 172.336 130.118 184.469 130.276C201.654 129.999 218.303 124.253 232 113.871C245.703 124.241 262.348 129.987 279.531 130.276C282.827 130.277 286.119 130.017 289.374 129.502L114.79 261.659C119.803 241.744 131.743 225.293 131.743 190.157ZM155.531 345.419C133.156 333.844 113.514 311.651 112.603 281.3L317.674 126.357C323.442 134.552 330.981 141.343 339.731 146.226C334.962 160.39 332.44 175.213 332.257 190.157C332.234 196.959 332.722 203.753 333.715 210.482L155.531 345.419ZM290.742 352.255C269.596 357.678 243.757 360.458 236.056 364.969C234.654 366.061 233.343 367.265 232.137 368.569C230.939 367.273 229.644 366.069 228.263 364.969C220.425 360.412 194.586 357.678 173.577 352.255L171.162 351.617L337.361 225.84C343.012 245.8 351.671 258.879 351.671 278.748C351.671 318.578 320.181 344.781 290.924 352.255" fill="#CFD2D3"/>
<path d="M188.707 281.3L169.567 251.724L148.331 267.629C149.35 267.664 150.353 267.901 151.28 268.327C152.207 268.752 153.04 269.358 153.732 270.109C154.423 270.859 154.958 271.739 155.306 272.698C155.654 273.657 155.808 274.676 155.759 275.695V331.429L170.752 320.081V280.844L187.841 307.23L203.7 295.245V225.885L188.707 237.233V281.3Z" fill="#CFD2D3"/>
<path d="M249.545 216.862L232.638 229.622V203.829L209.852 221.146C210.878 221.169 211.888 221.397 212.823 221.818C213.759 222.239 214.6 222.844 215.297 223.596C215.994 224.349 216.533 225.234 216.882 226.198C217.23 227.163 217.381 228.188 217.326 229.212V285.037L232.729 273.371V247.987L249.636 235.182V260.565L264.219 249.4V180.131L249.545 191.251V216.862Z" fill="#CFD2D3"/>
<path d="M292.428 210.391V158.758L269.642 176.075C270.667 176.098 271.678 176.327 272.613 176.748C273.548 177.169 274.39 177.774 275.087 178.526C275.784 179.279 276.323 180.163 276.671 181.128C277.02 182.093 277.171 183.117 277.116 184.142V239.739L319.634 207.565C319.048 201.686 319.048 195.763 319.634 189.884L292.428 210.391Z" fill="#CFD2D3"/>
<path d="M317.538 126.084L112.603 281.3C113.605 311.787 133.156 333.981 155.486 345.556L333.761 210.482C332.75 203.755 332.247 196.96 332.257 190.157C332.352 175.131 334.813 160.214 339.549 145.953C330.798 141.069 323.26 134.278 317.492 126.084M203.563 295.245L187.75 307.23L170.752 280.844V320.173L155.759 331.429V275.877C155.814 274.859 155.664 273.84 155.318 272.881C154.972 271.922 154.436 271.042 153.743 270.294C153.051 269.546 152.214 268.944 151.285 268.526C150.355 268.107 149.35 267.879 148.331 267.857L169.567 251.724L188.707 281.3V237.233L203.7 225.885L203.563 295.245ZM264.219 249.4L249.545 260.52V235.182L232.638 247.987V273.371L217.235 285.037V229.394C217.29 228.37 217.139 227.345 216.79 226.381C216.442 225.416 215.903 224.531 215.206 223.779C214.509 223.026 213.668 222.422 212.732 222.001C211.797 221.58 210.787 221.351 209.761 221.328L232.547 204.011V229.668L249.454 216.862V191.251L264.128 180.132L264.219 249.4ZM319.543 207.52L277.025 239.693V184.142C277.08 183.118 276.929 182.093 276.58 181.128C276.232 180.163 275.693 179.279 274.996 178.526C274.299 177.774 273.457 177.169 272.522 176.748C271.587 176.327 270.576 176.099 269.551 176.076L292.337 158.759V210.391L319.679 189.884C319.094 195.763 319.094 201.686 319.679 207.566" fill="#231F20"/>
<path d="M279.531 130.276C262.348 129.986 245.703 124.241 232 113.87C218.316 124.243 201.684 129.989 184.515 130.276C172.367 130.126 160.465 126.828 149.971 120.706C143.833 131.262 134.993 139.993 124.36 145.998C129.132 160.237 131.623 175.14 131.743 190.157C131.743 225.292 119.849 241.744 114.836 261.613L289.42 129.456C286.164 129.972 282.873 130.231 279.577 130.23" fill="#231F20"/>
<path d="M170.934 351.617L173.349 352.255C194.449 357.678 220.288 360.458 228.035 364.969C229.416 366.069 230.711 367.273 231.909 368.569C233.115 367.265 234.426 366.061 235.828 364.969C243.621 360.412 269.46 357.678 290.514 352.255C319.77 344.781 351.26 318.578 351.26 278.748C351.26 258.879 342.602 245.8 336.951 225.84L170.934 351.617Z" fill="#231F20"/>
<path d="M323.69 84.2032C323.69 84.2032 301.77 106.989 279.531 106.989C250.867 106.943 232 82.4259 232 82.4259C232 82.4259 213.133 106.943 184.515 106.943C162.276 106.943 140.31 84.1576 140.31 84.1576C130.421 128.954 93.8275 132.19 93.8275 132.19C103.242 150.099 108.418 169.931 108.957 190.157C108.957 230.488 89.8172 241.835 89.8172 278.748C89.8172 319.397 117.479 362.052 167.881 374.903C191.852 380.964 208.348 382.559 220.562 386.98C222.111 388.438 232.228 399.512 232.228 399.512C232.228 399.512 242.345 388.438 243.94 386.98C256.107 382.423 272.65 380.964 296.575 374.903C347.022 362.052 374.639 319.397 374.639 278.748C374.639 241.835 355.499 230.488 355.499 190.157C355.975 169.965 361.072 150.15 370.4 132.236C370.4 132.236 333.943 129 323.918 84.2032M344.516 190.157C344.516 232.812 363.656 245.161 363.656 278.748C363.656 325.732 327.199 355.627 293.704 364.24C267.044 371.03 249.591 371.805 237.879 377.501C237.879 377.501 233.595 381.42 232 383.243C230.405 381.42 226.121 377.501 226.121 377.501C214.409 371.805 197.001 371.03 170.342 364.24C136.665 355.627 100.344 325.732 100.344 278.748C100.344 245.161 119.484 232.812 119.484 190.157C119.41 172.628 115.734 155.302 108.684 139.254C108.684 139.254 133.611 134.195 145.141 102.432C156.069 111.986 169.961 117.475 184.469 117.972C202.291 117.474 219.267 110.263 232 97.7835C244.735 110.259 261.71 117.469 279.531 117.972C294.036 117.461 307.923 111.973 318.859 102.432C330.434 134.332 355.316 139.254 355.316 139.254C348.267 155.302 344.59 172.628 344.516 190.157Z" fill="#231F20"/>
<path d="M391.5 122.119L362.653 113.552C353.858 110.954 347.387 104.073 343.422 93.1811L330.662 58L302.226 81.7427C296.002 87.5153 287.922 90.8766 279.44 91.2216C268.476 90.8157 258.058 86.3302 250.229 78.6439L232 60.4153L213.771 78.6439C205.961 86.3309 195.557 90.8176 184.606 91.2216C176.127 90.8647 168.05 87.5051 161.82 81.7427L133.338 58L120.578 93.1811C116.613 104.073 110.188 110.954 101.347 113.552L72.5 122.119L84.7587 150.145C90.3342 162.75 93.2359 176.374 93.2806 190.157C93.2806 227.981 74.095 236.64 74.095 278.657C74.095 339.221 120.578 378.914 163.78 390.079C185.608 395.411 192.216 395.775 211.903 400.652L232 422.571L252.097 400.743C271.829 395.867 278.392 395.502 300.22 390.17C343.422 378.96 389.905 339.312 389.905 278.748C389.905 236.731 370.719 228.073 370.719 190.248C370.751 176.435 373.653 162.778 379.241 150.145L391.5 122.119ZM366.026 190.157C366.026 229.531 385.166 237.324 385.166 278.657C385.166 333.981 344.151 373.719 299.081 385.476C276.706 391.127 266.27 391.72 249.591 396.413C247.403 398.738 232 415.508 232 415.508C232 415.508 216.597 398.738 214.409 396.413C197.73 391.856 187.34 391.127 164.964 385.476C119.712 373.719 78.8344 333.981 78.8344 278.657C78.8344 237.324 97.9744 229.531 97.9744 190.157C97.9237 175.72 94.8987 161.448 89.088 148.231L79.0167 125.172L102.714 118.109C113.013 115.055 120.532 107.217 125.044 94.7761L135.48 65.975L158.767 85.3429C165.84 91.7838 174.956 95.5271 184.515 95.9154C196.72 95.5496 208.333 90.5658 217.007 81.9706L232 67.1143L246.993 82.0617C255.681 90.6637 267.31 95.6476 279.531 96.0066C289.086 95.5864 298.187 91.8105 305.233 85.3429L328.52 65.9294L338.956 94.7306C343.513 107.172 350.987 115.01 361.332 118.063L385.029 125.127L374.958 148.231C369.035 161.452 365.931 175.762 365.843 190.248" fill="#231F20"/>
<path d="M376.325 355.81C373.86 355.791 371.446 356.506 369.388 357.862C367.33 359.218 365.722 361.154 364.766 363.426C363.81 365.698 363.551 368.202 364.021 370.621C364.49 373.041 365.668 375.266 367.404 377.015C369.14 378.764 371.357 379.958 373.773 380.445C376.189 380.933 378.695 380.692 380.973 379.753C383.252 378.814 385.2 377.22 386.571 375.172C387.942 373.124 388.674 370.715 388.675 368.251C388.681 366.623 388.366 365.01 387.748 363.504C387.131 361.997 386.223 360.628 385.076 359.472C383.929 358.317 382.566 357.399 381.065 356.77C379.563 356.142 377.952 355.816 376.325 355.81ZM376.325 378.003C374.381 378.021 372.476 377.46 370.852 376.393C369.228 375.325 367.958 373.799 367.204 372.007C366.449 370.216 366.245 368.241 366.616 366.333C366.988 364.425 367.918 362.671 369.289 361.293C370.66 359.916 372.41 358.977 374.316 358.597C376.222 358.217 378.199 358.412 379.993 359.158C381.788 359.903 383.321 361.166 384.396 362.785C385.471 364.405 386.04 366.307 386.031 368.251C386.037 369.529 385.791 370.796 385.306 371.979C384.821 373.162 384.107 374.238 383.205 375.144C382.303 376.05 381.231 376.769 380.05 377.26C378.869 377.75 377.603 378.003 376.325 378.003Z" fill="white"/>
<path d="M382.386 365.334C382.386 364.23 381.95 363.171 381.174 362.386C380.397 361.601 379.343 361.154 378.239 361.142H372.178V375.314H374.821V369.572H376.735L379.378 375.314H382.386L379.606 369.299C380.426 369.013 381.136 368.476 381.635 367.765C382.133 367.053 382.396 366.203 382.386 365.334ZM378.239 366.884H374.912V363.785H378.239C378.65 363.785 379.044 363.948 379.334 364.239C379.625 364.529 379.788 364.923 379.788 365.334C379.788 365.745 379.625 366.139 379.334 366.43C379.044 366.721 378.65 366.884 378.239 366.884Z" fill="white"/>
</g>
<defs>
<clipPath id="clip0_101_1031">
<rect width="319" height="364.571" fill="white" transform="translate(72.5 58)"/>
</clipPath>
</defs>
</svg>
