<svg width="40" height="40" viewBox="0 0 100 100" fill="none" xmlns="http://www.w3.org/2000/svg">
  <circle cx="50" cy="50" r="46" fill="#0EA5E9" stroke="white" stroke-width="4"/>
  <!-- Center + scale the original truck glyph (designed around ~x=46,y=56) into the badge -->
  <g transform="matrix(2.4 0 0 2.4 -60.4 -84.4)">
    <path d="M50.5455 52.8621H51.7186C52.6932 52.8621 53.607 53.3355 54.1692 54.1316L56 56.7241M50.5455 52.8621V52C50.5455 50.3431 49.2023 49 47.5455 49H37.8182C37.3364 49.0015 36.8748 49.2055 36.5341 49.5673C36.1935 49.9291 36.0014 50.4194 36 50.931V59.7335C36 60.7377 36.814 61.5517 37.8182 61.5517M50.5455 52.8621V56.7241H56M43.2727 61.5517H48.7273M54.1818 61.5517C55.186 61.5517 56 60.7377 56 59.7335V56.7241M40.5455 63C40.2758 63 40.0121 62.9151 39.7879 62.7559C39.5636 62.5968 39.3888 62.3706 39.2856 62.106C39.1824 61.8413 39.1554 61.5501 39.208 61.2692C39.2606 60.9882 39.3905 60.7302 39.5812 60.5276C39.7719 60.3251 40.0149 60.1872 40.2794 60.1313C40.5439 60.0754 40.8181 60.1041 41.0673 60.2137C41.3165 60.3233 41.5294 60.5089 41.6793 60.7471C41.8291 60.9853 41.9091 61.2653 41.9091 61.5517C41.9091 61.9358 41.7654 62.3042 41.5097 62.5758C41.254 62.8474 40.9071 63 40.5455 63ZM51.4545 63C51.1848 63 50.9212 62.9151 50.697 62.7559C50.4727 62.5968 50.2979 62.3706 50.1947 62.106C50.0915 61.8413 50.0645 61.5501 50.1171 61.2692C50.1697 60.9882 50.2996 60.7302 50.4903 60.5276C50.681 60.3251 50.924 60.1872 51.1885 60.1313C51.453 60.0754 51.7272 60.1041 51.9764 60.2137C52.2256 60.3233 52.4385 60.5089 52.5884 60.7471C52.7382 60.9853 52.8182 61.2653 52.8182 61.5517C52.8182 61.9358 52.6745 62.3042 52.4188 62.5758C52.1631 62.8474 51.8162 63 51.4545 63Z" stroke="white" stroke-width="1.2" stroke-linecap="round" stroke-linejoin="round"/>
  </g>
</svg>
