<svg xmlns="http://www.w3.org/2000/svg" viewBox="0 0 144 144" fill="none" role="img" aria-label="MapQuest">
  <!-- MapQuest compass / M mark; transparent background -->
  <g clip-path="url(#mqClip)">
    <rect width="89.3445" height="89.3445" transform="matrix(0.703035 -0.711155 0.703035 0.711155 7.68719 71.9971)" fill="white"/>
    <path fill-rule="evenodd" clip-rule="evenodd" d="M91.3993 8.8037L132.379 50.6562C143.874 62.3945 143.874 81.6046 132.379 93.3428L91.3993 135.195C79.9043 146.935 61.0946 146.935 49.6009 135.195L8.62029 93.3428C-2.87343 81.6046 -2.87343 62.3945 8.62029 50.6562L49.6009 8.8037C61.0946 -2.93457 79.9043 -2.93457 91.3993 8.8037ZM79.2449 40.7062C75.5729 40.7062 72.5956 43.7715 72.5956 47.5528C72.5956 48.85 75.7012 54.8702 75.7812 54.9973H60.7335C49.363 54.9973 40.1136 64.4448 40.1136 76.0585V97.2805C40.1136 100.6 42.7493 103.294 45.9996 103.294C49.2512 103.294 51.8881 100.6 51.8881 97.2805V76.0585C51.8881 71.076 55.8561 67.0236 60.7335 67.0236H75.6426C75.2616 67.6268 72.706 73.0971 72.706 74.1556C72.706 77.9369 75.6821 81.0022 79.3555 81.0022C80.7425 81.0022 82.0317 80.5624 83.0974 79.8139C83.3413 79.6971 100.264 66.7383 100.264 66.7383C102.22 65.4865 103.411 63.2643 103.411 60.871C103.411 58.479 102.22 56.2582 100.264 55.0065C100.264 55.0065 83.2282 41.9852 82.9246 41.8503C81.8704 41.1291 80.6053 40.7062 79.2449 40.7062Z" fill="#3FB760"/>
  </g>
  <defs>
    <clipPath id="mqClip">
      <rect width="141" height="144" fill="white"/>
    </clipPath>
  </defs>
</svg>
